# xmcd
#
# Track frame offsets:
#	150
#	12946
#	29085
#	42991
#	57598
#	69740
#	86734
#	100219
#	120269
#	137743
#	151716
#	165519
#	181518
#	194715
#	212165
#
# Disc length: 3023 seconds
#
# Revision: 65537
# Processed by: cddbd v1.5.2PL0 Copyright (c) Steve Scherf et al.
# Submitted via: EZCDAudioConverter 8.0.7.1
#
DISCID=cd0bcd0f
DTITLE=Florida Georgia Line - Dig Your Roots
DYEAR=2016
DGENRE=Country
TTITLE0=Smooth
TTITLE1=Dig Your Roots
TTITLE2=Life Is A Honeymoon
TTITLE3=H.O.L.Y.
TTITLE4=Island
TTITLE5=May We All
TTITLE6=Summerland
TTITLE7=Lifer
TTITLE8=Good Girl, Bad Boy
TTITLE9=Wish You Were On It
TTITLE10=God, Your Mama, And Me
TTITLE11=Music Is Healing
TTITLE12=While He's Still Around
TTITLE13=Grow Old
TTITLE14=Heatwave
EXTD=
EXTT0=
EXTT1=
EXTT2=
EXTT3=
EXTT4=
EXTT5=
EXTT6=
EXTT7=
EXTT8=
EXTT9=
EXTT10=
EXTT11=
EXTT12=
EXTT13=
EXTT14=
PLAYORDER=
